<svg width="183" height="40" viewBox="0 0 183 40" fill="none" xmlns="http://www.w3.org/2000/svg"><path fill-rule="evenodd" clip-rule="evenodd" d="M30.6986 1.03812C30.6986 0.947465 30.6867 0.857197 30.6632 0.769624C30.5149 0.215939 29.9455 -0.112699 29.3916 0.0355901L24.375 1.37846C23.921 1.5 23.6052 1.91121 23.6052 2.381V5.20712C23.6052 5.29778 23.6171 5.38805 23.6406 5.47562C23.7889 6.02931 24.3583 6.35795 24.9122 6.20966L29.9288 4.86678C30.3829 4.74525 30.6986 4.33404 30.6986 3.86425V1.03812ZM97.4532 0.512562L97.3277 0.366771C97.0996 0.145167 96.782 0.0329815 96.4592 0.0679259L91.5686 0.59741L91.3912 0.631681C90.9335 0.760579 90.6054 1.18034 90.6054 1.67V31.7402L90.6228 31.9342C90.7142 32.4374 91.1549 32.8191 91.6848 32.8191H96.4969L96.6909 32.8017C97.1945 32.7104 97.5763 32.2698 97.5763 31.7392L97.5374 11.2634L111.67 32.3408L111.806 32.5054C112.006 32.7043 112.279 32.8191 112.567 32.8191H116.161L116.355 32.8017C116.859 32.7104 117.241 32.2699 117.241 31.7402V1.67681L117.226 1.496C117.146 1.02503 116.76 0.653032 116.27 0.603439L111.502 0.12085L111.308 0.118604C110.797 0.158781 110.373 0.558584 110.32 1.08553L110.314 1.19899L110.391 18.5781L97.4532 0.512562ZM67.4832 7.29077L67.5512 7.4732L68.456 10.7811C70.6299 9.04078 73.4191 7.42262 76.3724 7.42262C82.3142 7.42262 86.0849 10.9475 86.2898 17.35L86.2986 17.9058V31.7467C86.2986 32.2763 85.9167 32.7168 85.4132 32.8082L85.2192 32.8256H80.323C79.7931 32.8256 79.3524 32.4439 79.261 31.9406L79.2436 31.7467V17.9058C79.2436 14.8395 77.5619 13.5136 74.4035 13.5136C72.6425 13.5136 70.7386 14.7275 69.5921 15.9674L69.3584 16.2331V31.7467C69.3584 32.2763 68.9766 32.7168 68.473 32.8082L68.279 32.8256H63.3828C62.8529 32.8256 62.4122 32.4439 62.3208 31.9406L62.3034 31.7467V8.61115C62.3034 8.18558 62.5527 7.80605 62.9295 7.63197L63.0984 7.57041L66.2253 6.71679C66.6725 6.59491 67.1309 6.77262 67.3866 7.12796L67.4832 7.29077ZM145.655 20.3775C145.655 11.7954 141.964 7.42263 133.261 7.42263C124.597 7.42263 120.829 11.7954 120.829 20.3775C120.829 28.9596 124.597 33.2506 133.261 33.2506C141.964 33.2506 145.655 28.9596 145.655 20.3775ZM45.4387 7.5305C47.6145 7.5305 50.0224 7.79562 52.0065 8.68337C52.1742 8.75838 52.5171 8.94748 52.8422 9.24805C52.9044 9.30556 54.0337 9.01872 56.23 8.38754C56.734 8.24268 57.2585 8.48127 57.4891 8.93245L57.5612 9.11127L58.3324 11.6547C58.4703 12.1661 58.2162 12.6907 57.7538 12.9098L57.571 12.9771L55.9813 13.4052C56.1173 14.2413 56.1853 14.8932 56.1853 15.3609C56.1853 20.0345 53.3141 23.0683 45.4798 23.0683C44.2082 23.0683 42.9367 22.9863 41.7061 22.7813C41.0909 23.0683 40.7627 23.4783 40.7627 23.9702C40.7627 24.5339 41.2108 24.891 42.2649 25.0413L42.5675 25.0772L49.6225 25.3641C56.3904 25.6511 58.7284 27.9879 58.7284 31.7186C58.7284 36.8022 54.9958 40 45.6848 40C37.5224 40 34.282 37.0482 34.282 33.2355C34.282 31.7186 34.9793 30.3247 36.2918 29.2998C35.1844 28.4389 34.405 27.209 34.405 25.5691C34.405 23.8882 35.3895 22.2484 37.7274 21.1825C35.8406 20.0345 34.6922 18.1897 34.6922 15.3609C34.6922 10.8922 37.5634 7.5305 45.4387 7.5305ZM41.296 30.6527C40.5577 31.1857 40.2295 31.8826 40.2295 32.4566C40.2295 34.0644 41.5806 34.8845 45.0364 34.9527L45.5208 34.9574C51.1812 34.9984 52.5348 34.0965 52.5348 32.7436C52.5348 31.7746 51.9246 31.246 49.2867 31.0347L48.433 30.9807L41.296 30.6527ZM10.7056 7.48736C12.951 7.48736 15.1964 7.81331 17.2652 8.40638L17.9138 8.60817C18.4282 8.78546 18.7218 9.29039 18.6442 9.796L18.5974 9.985L17.4842 13.2099C17.3451 13.6127 16.9573 13.8648 16.5455 13.8439L16.3682 13.8178L15.9248 13.7129C13.9838 13.2796 11.9252 13.0629 10.4184 13.0629C8.08044 13.0629 6.76788 13.8009 6.76788 14.9898C6.76788 16.3805 8.78207 16.8487 11.2397 17.4201C15.0852 18.3141 20.0165 19.4605 20.0165 24.788C20.0165 29.6256 16.9402 33.2334 9.26995 33.2334C6.31045 33.2334 3.68949 32.8104 1.45386 31.9177L1.01363 31.7288C0.562028 31.5252 0.314358 31.0458 0.392062 30.5717L0.43669 30.3948L1.56643 27.1119C1.71249 26.7267 2.10773 26.5088 2.49936 26.5721L2.66624 26.6168L3.4093 26.8766C5.42205 27.525 7.65493 27.8218 9.393 27.8218C12.2232 27.8218 13.4127 26.7969 13.4127 25.485C13.4127 24.0247 11.3578 23.5317 8.85671 22.9317C4.9678 21.9986 0 20.8068 0 15.3177C0 10.6441 3.44547 7.48736 10.7056 7.48736ZM30.6937 9.53001C30.6937 9.4394 30.6818 9.34919 30.6584 9.26167C30.5101 8.70796 29.9408 8.37923 29.3868 8.52743L24.3658 9.87066C23.9117 9.99214 23.5958 10.4034 23.5958 10.8732V31.796C23.5958 32.3692 24.0608 32.8339 24.6342 32.8339H29.6553C30.2288 32.8339 30.6937 32.3692 30.6937 31.796V9.53001ZM147.898 7.45986L153.091 8.82328C153.494 8.92921 153.801 9.25802 153.877 9.66781L156.731 24.8699L157.029 26.9371L157.43 24.8562L160.435 10.941C160.544 10.4384 160.992 10.0822 161.507 10.0899L168.259 10.1912C168.763 10.1987 169.195 10.5536 169.299 11.0463L172.229 24.8662L172.544 26.8897L172.889 24.8607L175.841 9.95717C175.93 9.50981 176.29 9.16645 176.742 9.0995L181.429 8.40419C182.018 8.31672 182.567 8.7236 182.655 9.31298C182.675 9.45121 182.669 9.59212 182.636 9.72786L177.183 31.9958C177.064 32.4786 176.632 32.8181 176.134 32.8181H169.2C168.696 32.8181 168.258 32.469 168.147 31.9772L165.216 19.0178L164.902 16.8368L164.437 19.039L161.181 32.002C161.06 32.4818 160.629 32.8181 160.134 32.8181H153.225C152.727 32.8181 152.293 32.4766 152.176 31.992L146.575 8.75602C146.435 8.17676 146.792 7.59403 147.371 7.45447C147.545 7.4127 147.726 7.41455 147.898 7.45986ZM127.745 20.3366C127.745 14.8196 129.26 13.0214 133.262 13.0214C137.224 13.0214 138.662 14.8196 138.662 20.3366C138.662 25.8537 137.224 27.6927 133.262 27.6927C129.26 27.6927 127.745 25.8946 127.745 20.3366ZM45.5208 12.6141C42.6496 12.6141 41.6652 13.516 41.6652 15.5249C41.6652 17.8207 43.1418 18.3947 45.3567 18.3947C48.5151 18.3947 49.3764 17.5747 49.3764 15.5249C49.3764 13.434 48.31 12.6141 45.5208 12.6141Z" fill="#0777CF"/></svg>